<mxfile host="www.draw.io" modified="2019-12-10T14:20:57.943Z" agent="Mozilla/5.0 (Windows NT 10.0; Win64; x64) AppleWebKit/537.36 (KHTML, like Gecko) Chrome/78.0.3904.108 Safari/537.36" etag="vYYfOm28yMI8GUcrSHuR" version="12.3.9" type="github" pages="1">
  <diagram id="BrcJUe6Ag9btfKnU2FFb" name="Page-1">
    <mxGraphModel dx="1986" dy="1148" grid="1" gridSize="10" guides="1" tooltips="1" connect="1" arrows="1" fold="1" page="1" pageScale="1" pageWidth="1100" pageHeight="850" math="0" shadow="0">
      <root>
        <mxCell id="0"/>
        <mxCell id="1" parent="0"/>
        <mxCell id="v2BMehigPBERCRcNiAkH-65" value="" style="endArrow=none;dashed=1;html=1;" parent="1" edge="1">
          <mxGeometry width="50" height="50" relative="1" as="geometry">
            <mxPoint x="233" y="501" as="sourcePoint"/>
            <mxPoint x="233" y="471" as="targetPoint"/>
          </mxGeometry>
        </mxCell>
        <mxCell id="v2BMehigPBERCRcNiAkH-45" value="HW Resources" style="rounded=1;whiteSpace=wrap;html=1;fillColor=#dae8fc;strokeColor=none;" parent="1" vertex="1">
          <mxGeometry x="33" y="683" width="420" height="60" as="geometry"/>
        </mxCell>
        <mxCell id="v2BMehigPBERCRcNiAkH-47" value="PROD Network" style="rounded=1;whiteSpace=wrap;html=1;fillColor=#6a00ff;strokeColor=none;fontColor=#ffffff;" parent="1" vertex="1">
          <mxGeometry x="33" y="633" width="420" height="50" as="geometry"/>
        </mxCell>
        <mxCell id="v2BMehigPBERCRcNiAkH-49" value="" style="rounded=1;whiteSpace=wrap;html=1;fillColor=none;strokeColor=#000000;fontColor=#ffffff;dashed=1;" parent="1" vertex="1">
          <mxGeometry x="33" y="533" width="420" height="100" as="geometry"/>
        </mxCell>
        <mxCell id="v2BMehigPBERCRcNiAkH-57" value="S3 storage" style="rounded=0;whiteSpace=wrap;html=1;strokeColor=#000000;fillColor=#d0cee2;" parent="1" vertex="1">
          <mxGeometry x="183" y="593" width="120" height="30" as="geometry"/>
        </mxCell>
        <mxCell id="v2BMehigPBERCRcNiAkH-59" value="Amazon Retail Website" style="rounded=0;whiteSpace=wrap;html=1;strokeColor=#000000;fillColor=#d0cee2;" parent="1" vertex="1">
          <mxGeometry x="183" y="553" width="120" height="30" as="geometry"/>
        </mxCell>
        <mxCell id="v2BMehigPBERCRcNiAkH-63" value="" style="rounded=0;whiteSpace=wrap;html=1;strokeColor=#000000;fillColor=none;" parent="1" vertex="1">
          <mxGeometry x="23" y="513" width="440" height="240" as="geometry"/>
        </mxCell>
        <mxCell id="v2BMehigPBERCRcNiAkH-64" value="DC-n" style="text;html=1;strokeColor=none;fillColor=none;align=center;verticalAlign=middle;whiteSpace=wrap;rounded=0;" parent="1" vertex="1">
          <mxGeometry x="33" y="493" width="40" height="20" as="geometry"/>
        </mxCell>
        <mxCell id="v2BMehigPBERCRcNiAkH-21" value="" style="rounded=0;whiteSpace=wrap;html=1;strokeColor=#000000;fillColor=none;" parent="1" vertex="1">
          <mxGeometry x="23" y="33" width="440" height="430" as="geometry"/>
        </mxCell>
        <mxCell id="mUfFNQfd8sNhGgYlGEbd-1" value="HW Resources" style="rounded=1;whiteSpace=wrap;html=1;fillColor=#dae8fc;strokeColor=none;" parent="1" vertex="1">
          <mxGeometry x="33" y="393" width="420" height="60" as="geometry"/>
        </mxCell>
        <mxCell id="mUfFNQfd8sNhGgYlGEbd-2" value="EC2 Network" style="rounded=1;whiteSpace=wrap;html=1;fillColor=#60a917;strokeColor=none;fontColor=#ffffff;" parent="1" vertex="1">
          <mxGeometry x="33" y="343" width="140" height="50" as="geometry"/>
        </mxCell>
        <mxCell id="v2BMehigPBERCRcNiAkH-2" value="PROD Network" style="rounded=1;whiteSpace=wrap;html=1;fillColor=#6a00ff;strokeColor=none;fontColor=#ffffff;" parent="1" vertex="1">
          <mxGeometry x="173" y="343" width="140" height="50" as="geometry"/>
        </mxCell>
        <mxCell id="v2BMehigPBERCRcNiAkH-3" value="Corp Network" style="rounded=1;whiteSpace=wrap;html=1;fillColor=#1ba1e2;strokeColor=none;fontColor=#ffffff;" parent="1" vertex="1">
          <mxGeometry x="313" y="343" width="140" height="50" as="geometry"/>
        </mxCell>
        <mxCell id="v2BMehigPBERCRcNiAkH-5" value="" style="rounded=1;whiteSpace=wrap;html=1;fillColor=none;strokeColor=#000000;fontColor=#ffffff;dashed=1;" parent="1" vertex="1">
          <mxGeometry x="173" y="73" width="140" height="320" as="geometry"/>
        </mxCell>
        <mxCell id="v2BMehigPBERCRcNiAkH-6" value="" style="rounded=1;whiteSpace=wrap;html=1;fillColor=none;strokeColor=#000000;fontColor=#ffffff;dashed=1;" parent="1" vertex="1">
          <mxGeometry x="313" y="73" width="140" height="320" as="geometry"/>
        </mxCell>
        <mxCell id="v2BMehigPBERCRcNiAkH-10" style="edgeStyle=orthogonalEdgeStyle;rounded=0;orthogonalLoop=1;jettySize=auto;html=1;exitX=0.5;exitY=0;exitDx=0;exitDy=0;entryX=0.5;entryY=0;entryDx=0;entryDy=0;shape=flexArrow;startArrow=block;fillColor=#fff2cc;strokeColor=none;" parent="1" source="v2BMehigPBERCRcNiAkH-4" target="v2BMehigPBERCRcNiAkH-5" edge="1">
          <mxGeometry relative="1" as="geometry">
            <Array as="points">
              <mxPoint x="103" y="43"/>
              <mxPoint x="243" y="43"/>
            </Array>
          </mxGeometry>
        </mxCell>
        <mxCell id="v2BMehigPBERCRcNiAkH-4" value="" style="rounded=1;whiteSpace=wrap;html=1;fillColor=none;strokeColor=#000000;fontColor=#ffffff;dashed=1;" parent="1" vertex="1">
          <mxGeometry x="33" y="73" width="140" height="320" as="geometry"/>
        </mxCell>
        <mxCell id="v2BMehigPBERCRcNiAkH-7" value="AWS Mgmt" style="rounded=0;whiteSpace=wrap;html=1;strokeColor=#000000;fillColor=#d0cee2;" parent="1" vertex="1">
          <mxGeometry x="113" y="303" width="120" height="30" as="geometry"/>
        </mxCell>
        <mxCell id="v2BMehigPBERCRcNiAkH-11" style="edgeStyle=orthogonalEdgeStyle;rounded=0;orthogonalLoop=1;jettySize=auto;html=1;entryX=0.5;entryY=0;entryDx=0;entryDy=0;shape=flexArrow;startArrow=block;fillColor=#fff2cc;strokeColor=none;exitX=0.5;exitY=0;exitDx=0;exitDy=0;" parent="1" source="v2BMehigPBERCRcNiAkH-5" target="v2BMehigPBERCRcNiAkH-6" edge="1">
          <mxGeometry relative="1" as="geometry">
            <mxPoint x="243" y="103" as="sourcePoint"/>
            <mxPoint x="383.1428571428571" y="113" as="targetPoint"/>
            <Array as="points">
              <mxPoint x="243" y="43"/>
              <mxPoint x="383" y="43"/>
            </Array>
          </mxGeometry>
        </mxCell>
        <mxCell id="v2BMehigPBERCRcNiAkH-12" value="AWS Monitoring" style="rounded=0;whiteSpace=wrap;html=1;strokeColor=#000000;fillColor=#d0cee2;" parent="1" vertex="1">
          <mxGeometry x="43" y="263" width="120" height="30" as="geometry"/>
        </mxCell>
        <mxCell id="v2BMehigPBERCRcNiAkH-13" value="Customer Resources" style="rounded=0;whiteSpace=wrap;html=1;strokeColor=#000000;fillColor=#d0cee2;" parent="1" vertex="1">
          <mxGeometry x="43" y="213" width="120" height="30" as="geometry"/>
        </mxCell>
        <mxCell id="v2BMehigPBERCRcNiAkH-14" value="S3 storage" style="rounded=0;whiteSpace=wrap;html=1;strokeColor=#000000;fillColor=#d0cee2;" parent="1" vertex="1">
          <mxGeometry x="183" y="248" width="120" height="30" as="geometry"/>
        </mxCell>
        <mxCell id="v2BMehigPBERCRcNiAkH-15" value="Distributed DB" style="rounded=0;whiteSpace=wrap;html=1;strokeColor=#000000;fillColor=#d0cee2;" parent="1" vertex="1">
          <mxGeometry x="43" y="118" width="120" height="30" as="geometry"/>
        </mxCell>
        <mxCell id="v2BMehigPBERCRcNiAkH-16" value="Amazon Retail Website" style="rounded=0;whiteSpace=wrap;html=1;strokeColor=#000000;fillColor=#d0cee2;" parent="1" vertex="1">
          <mxGeometry x="183" y="198" width="120" height="30" as="geometry"/>
        </mxCell>
        <mxCell id="v2BMehigPBERCRcNiAkH-17" value="Corp VPN" style="rounded=0;whiteSpace=wrap;html=1;strokeColor=#000000;fillColor=#d0cee2;" parent="1" vertex="1">
          <mxGeometry x="323" y="278" width="120" height="30" as="geometry"/>
        </mxCell>
        <mxCell id="v2BMehigPBERCRcNiAkH-19" value="LoadBalancing" style="rounded=0;whiteSpace=wrap;html=1;strokeColor=#000000;fillColor=#d0cee2;" parent="1" vertex="1">
          <mxGeometry x="43" y="168" width="120" height="30" as="geometry"/>
        </mxCell>
        <mxCell id="v2BMehigPBERCRcNiAkH-20" value="Block Storage" style="rounded=0;whiteSpace=wrap;html=1;strokeColor=#000000;fillColor=#d0cee2;" parent="1" vertex="1">
          <mxGeometry x="43" y="88" width="120" height="30" as="geometry"/>
        </mxCell>
        <mxCell id="v2BMehigPBERCRcNiAkH-22" value="DC-1" style="text;html=1;strokeColor=none;fillColor=none;align=center;verticalAlign=middle;whiteSpace=wrap;rounded=0;" parent="1" vertex="1">
          <mxGeometry x="23" y="15" width="40" height="20" as="geometry"/>
        </mxCell>
        <mxCell id="v2BMehigPBERCRcNiAkH-86" style="rounded=0;orthogonalLoop=1;jettySize=auto;html=1;exitX=0.25;exitY=0;exitDx=0;exitDy=0;entryX=0.25;entryY=1;entryDx=0;entryDy=0;shape=flexArrow;startArrow=block;fillColor=#fff2cc;strokeColor=none;" parent="1" source="v2BMehigPBERCRcNiAkH-63" target="v2BMehigPBERCRcNiAkH-21" edge="1">
          <mxGeometry relative="1" as="geometry">
            <mxPoint x="736" y="588" as="sourcePoint"/>
            <mxPoint x="876" y="588" as="targetPoint"/>
          </mxGeometry>
        </mxCell>
      </root>
    </mxGraphModel>
  </diagram>
</mxfile>
